<?xml version="1.0" encoding="UTF-8"?>
<!-- Generator: Adobe Illustrator 25.0.0, SVG Export Plug-In . SVG Version: 6.00 Build 0)  -->
<svg version="1.1" id="Lag_1" xmlns="http://www.w3.org/2000/svg" xmlns:xlink="http://www.w3.org/1999/xlink" x="0px"
     y="0px" viewBox="0 0 434.84 93.45" style="enable-background:new 0 0 434.84 93.45;" xml:space="preserve">
<style type="text/css">
	.st0{fill:#575756;}
	.st1{fill:#E5231B;}
</style>
    <g>
	<g>
		<path class="st0"
              d="M52.69,91.77c-1.66,0.08-3.15,0.14-4.47,0.19c-1.33,0.04-2.63,0.08-3.91,0.12c-1.29,0.04-2.61,0.06-3.98,0.06    h-4.54c-6.71,0-12.35-0.73-16.9-2.18c-4.56-1.45-8.22-3.52-11-6.21C5.11,81.06,3.11,77.81,1.86,74C0.62,70.19,0,65.92,0,61.2    c0-4.56,0.5-9.53,1.49-14.91c1.57-8.45,3.77-15.43,6.59-20.94c2.81-5.51,6.32-9.92,10.5-13.23c4.18-3.31,9.01-5.63,14.48-6.96    c5.47-1.32,11.64-1.99,18.52-1.99h4.16c1.28,0,2.63,0.02,4.04,0.06c1.41,0.04,3.02,0.08,4.85,0.12c1.82,0.04,4.02,0.1,6.59,0.19    l-6.59,17.27c-3.15-0.16-5.72-0.27-7.7-0.31c-1.99-0.04-4.18-0.06-6.59-0.06c-4.23,0-7.85,0.42-10.87,1.24    c-3.03,0.83-5.61,2.28-7.77,4.35c-2.16,2.07-3.96,4.83-5.41,8.26c-1.45,3.44-2.71,7.81-3.79,13.11C21.5,52.38,21,56.52,21,59.83    c0,2.98,0.39,5.43,1.18,7.33c0.79,1.91,1.95,3.42,3.48,4.53c1.53,1.12,3.44,1.91,5.72,2.36c2.28,0.46,4.91,0.68,7.89,0.68h5.47    c1.66,0,3.25-0.02,4.78-0.06c1.53-0.04,3.08-0.08,4.66-0.12c1.57-0.04,3.27-0.06,5.09-0.06L52.69,91.77z"/>
        <path class="st0"
              d="M98.02,63.44c-3.65,0-6.36,0.48-8.14,1.43c-1.78,0.95-2.92,2.8-3.42,5.53c-0.17,0.67-0.25,1.24-0.25,1.74    v1.24c0,2.4,0.85,3.98,2.55,4.72c1.7,0.74,4.41,1.12,8.14,1.12c1.9,0,3.75-0.06,5.53-0.19c1.78-0.12,3.37-0.27,4.78-0.43    l1.12-5.84c0.17-0.5,0.25-0.97,0.25-1.43v-1.3c0-2.82-0.97-4.62-2.92-5.41C103.71,63.83,101.17,63.44,98.02,63.44 M92.93,93.01    c-8.53,0-14.87-1.39-19.01-4.16c-4.14-2.78-6.21-7.19-6.21-13.24c0-1.16,0.04-2.34,0.12-3.54c0.08-1.2,0.29-2.46,0.62-3.79    c1.32-5.71,4.08-10.17,8.26-13.36c4.18-3.19,10.42-4.78,18.7-4.78c3.56,0,6.79,0.31,9.69,0.93c2.9,0.62,5.18,1.68,6.84,3.17    l0.5-2.48c0.25-1.08,0.37-2.07,0.37-2.98c0-2.65-0.95-4.45-2.86-5.41c-1.91-0.95-4.72-1.43-8.45-1.43h-11    c-3.93,0-8.26,0.08-12.99,0.25l5.59-15.28c2.4-0.17,5.36-0.25,8.89-0.25h11.49c9.28,0,16.17,1.6,20.69,4.78    c4.51,3.19,6.77,8.31,6.77,15.35c0,1.24-0.08,2.57-0.25,3.98c-0.17,1.41-0.37,2.86-0.62,4.35l-4.6,24.11    c-0.5,2.4-1.12,4.39-1.86,5.97c-0.75,1.58-1.7,2.84-2.86,3.79c-1.16,0.95-2.55,1.68-4.16,2.17c-1.61,0.5-3.54,0.87-5.78,1.12    c-2.16,0.16-4.87,0.33-8.14,0.5C99.41,92.93,96.16,93.01,92.93,93.01"/>
        <path class="st0"
              d="M174.62,26.53c2.98,0,5.41,0.02,7.27,0.06c1.86,0.04,3.83,0.15,5.9,0.31l-6.09,15.9    c-1.24-0.08-2.4-0.14-3.48-0.19c-1.08-0.04-2.11-0.06-3.11-0.06c-2.32,0-4.25,0.19-5.78,0.56c-1.53,0.37-2.8,1.04-3.79,1.99    c-0.99,0.95-1.8,2.22-2.42,3.79c-0.62,1.58-1.18,3.61-1.68,6.09l-7.21,36.91h-19.76l7.46-38.15c1.08-5.55,2.55-10.08,4.41-13.61    c1.86-3.52,4.16-6.29,6.9-8.32c2.73-2.03,5.86-3.42,9.38-4.16C166.15,26.91,170.14,26.53,174.62,26.53"/>
	</g>
        <path class="st0"
              d="M249.02,54.93h21.5l-4.1-32.56L249.02,54.93z M272.26,70.96h-31.19l-11.31,21.37h-20.88l49.71-88.48h22.49   l14.42,88.48h-20.38L272.26,70.96z"/>
        <g>
		<path class="st0"
              d="M333.58,77.91c1.16,0,2.55-0.06,4.16-0.18c1.62-0.13,3.13-0.27,4.54-0.44l4.22-21.87    c0.42-2.07,0.62-3.93,0.62-5.59c0-3.48-0.89-5.84-2.67-7.08c-1.78-1.24-4.25-1.86-7.39-1.86c-1.99,0-3.69,0.23-5.1,0.68    c-1.41,0.46-2.65,1.29-3.73,2.49c-1.08,1.2-2.01,2.84-2.8,4.91c-0.79,2.07-1.51,4.72-2.18,7.95c-0.83,4.06-1.24,7.54-1.24,10.44    c0,4.14,0.99,6.94,2.98,8.39C326.99,77.19,329.85,77.91,333.58,77.91 M336.31,25.35c3.81,0,6.92,0.43,9.32,1.3    c2.4,0.87,4.35,2.01,5.84,3.42L357.31,0h19.76l-15.53,79.65c-0.5,2.48-1.12,4.54-1.86,6.15c-0.75,1.61-1.74,2.92-2.98,3.91    c-1.24,0.99-2.76,1.72-4.54,2.18c-1.78,0.45-3.87,0.81-6.28,1.05c-1.74,0.17-3.83,0.29-6.27,0.37c-2.44,0.08-4.5,0.12-6.15,0.12    c-4.72,0-8.99-0.42-12.8-1.24c-3.81-0.83-7.08-2.21-9.82-4.16c-2.73-1.94-4.83-4.51-6.27-7.7c-1.45-3.19-2.18-7.18-2.18-11.99    c0-1.74,0.1-3.58,0.31-5.53c0.21-1.95,0.52-4.04,0.93-6.27c1.16-6.21,2.8-11.33,4.91-15.35c2.11-4.02,4.58-7.21,7.39-9.57    c2.82-2.36,5.94-4,9.38-4.91C328.75,25.81,332.42,25.35,336.31,25.35"/>
            <path class="st0"
                  d="M412.97,53.06c5.22,1.41,9.13,3.33,11.74,5.78c2.61,2.44,3.91,5.9,3.91,10.38c0,2.07-0.25,4.27-0.75,6.59    c-1.16,5.8-4.27,10.05-9.32,12.74c-5.06,2.69-12.22,4.04-21.5,4.04h-5.41h-6.4c-2.24,0-4.56-0.02-6.96-0.06    c-2.4-0.04-4.72-0.1-6.96-0.19l5.09-15.28c2.24,0.08,4.33,0.14,6.27,0.19c1.94,0.04,3.85,0.06,5.72,0.06h5.72h6.4    c2.15,0,3.89-0.12,5.22-0.37c1.33-0.25,2.32-0.78,2.98-1.61c0.58-0.83,0.87-1.78,0.87-2.86c0-1.08-0.42-1.86-1.24-2.36    c-0.83-0.5-2.11-0.95-3.85-1.37l-11.68-3.11c-4.06-1.16-7.33-2.98-9.82-5.47c-2.49-2.49-3.73-5.97-3.73-10.44    c0-1.49,0.21-3.27,0.62-5.34c1.16-5.97,4.1-10.33,8.82-13.11c4.72-2.78,11.56-4.16,20.5-4.16h5.28c1.7,0,3.5,0.02,5.41,0.06    c1.9,0.04,4.06,0.1,6.46,0.19c2.4,0.08,5.22,0.17,8.45,0.25l-5.59,15.16c-3.23-0.08-5.99-0.14-8.26-0.19    c-2.28-0.04-4.24-0.08-5.9-0.12c-1.66-0.04-3.13-0.06-4.41-0.06h-3.79c-1.99,0-3.62,0.08-4.91,0.25    c-1.29,0.17-2.26,0.58-2.92,1.24c-0.33,0.33-0.58,0.79-0.75,1.37c-0.17,0.58-0.25,1.12-0.25,1.61c0,0.99,0.37,1.7,1.12,2.11    c0.75,0.42,1.82,0.83,3.23,1.24L412.97,53.06z"/>
	</g>
        <polygon class="st1" points="248.04,3.85 198.33,92.33 189.28,92.33 238.98,3.85  "/>
        <polygon class="st1" points="228.42,3.85 178.72,92.33 169.66,92.33 219.37,3.85  "/>
</g>
</svg>